# xmcd
#
# Track frame offsets:
#	200
#	14565
#	27267
#	39790
#	52492
#	66595
#	79202
#	91377
#	103115
#	116192
#	128157
#	140940
#	155862
#	170070
#	183232
#	198267
#	211010
#	222865
#
# Disc length: 3162 seconds
#
# Revision: 0
# Processed by: cddbd v1.5.2PL0 Copyright (c) Steve Scherf et al.
# Submitted via: audiograbber 1.83.01
#
DISCID=160c5812
DTITLE=Various Artist - West Coast Jive
DYEAR=1946
DGENRE=Jazz and Classic R&B
TTITLE0=Cee Pee Johnson - The G Man Got The T Man
TTITLE1=Duke Henderson - Hd Blues
TTITLE2=Al (Stomp) Russell Trio - Let's Go Down The Road
TTITLE3=Wynonie Harris - Somebody Changed The Lock On My Door
TTITLE4=Cee Pee Johnson - Without You
TTITLE5=Frank Haywood - You Gotta Give It Up
TTITLE6=Wynonie Harris - Playful Baby
TTITLE7=Cee Pee Johnson - When You're Alone
TTITLE8=Duke Henderson - Get Your Kicks
TTITLE9=Al (Stomp) Russell Trio - Let's Get Together
TTITLE10=Wynonie Harris - Wynonie's Blues
TTITLE11=Cee Pee Johnson - I'm So Lonesome
TTITLE12=Al (Stomp) Russell Trio - Give Me My Money Back
TTITLE13=Duke Henderson - Not Worth A Dime
TTITLE14=Cee Pee Johnson - Hour After Hour
TTITLE15=Frank Haywood - Now Or Never
TTITLE16=Duke Henderson - Don't Slam The Door
TTITLE17=Cee Pee Johnson - Miss Jiveola Brown
EXTD=
EXTT0=
EXTT1=
EXTT2=
EXTT3=
EXTT4=
EXTT5=
EXTT6=
EXTT7=
EXTT8=
EXTT9=
EXTT10=
EXTT11=
EXTT12=
EXTT13=
EXTT14=
EXTT15=
EXTT16=
EXTT17=
PLAYORDER=
